<svg width="2162" height="2798" viewBox="0 0 2162 2798" fill="none" xmlns="http://www.w3.org/2000/svg">
<g clip-path="url(#clip0_16265_10904)">
<path d="M1355.55 13.3318V161.264C1355.55 179.009 1383.13 179.009 1383.13 161.264V13.3318C1383.13 -4.4127 1355.55 -4.4127 1355.55 13.3318Z" fill="#F08100"/>
<path d="M1797.76 432.672H1649.81C1632.06 432.672 1632.06 460.254 1649.81 460.254H1797.76C1815.51 460.254 1815.51 432.672 1797.76 432.672Z" fill="#F08100"/>
<path d="M940.827 460.254H1088.78C1106.53 460.254 1106.53 432.672 1088.78 432.672H940.827C923.08 432.672 923.08 460.254 940.827 460.254Z" fill="#F08100"/>
<path d="M1671.51 126.786C1639.05 160.896 1606.59 195.006 1574.13 229.208C1568.98 234.632 1568.79 243.367 1574.13 248.699C1579.46 254.032 1588.47 254.124 1593.62 248.699C1626.08 214.589 1658.54 180.479 1691 146.277C1696.15 140.853 1696.34 132.118 1691 126.786C1685.67 121.453 1676.66 121.361 1671.51 126.786Z" fill="#F08100"/>
<path d="M1061.57 146.369C1094.03 180.479 1126.49 214.589 1158.95 248.791C1164.1 254.215 1173.29 253.94 1178.44 248.791C1183.59 243.642 1183.59 234.724 1178.44 229.3C1145.98 195.19 1113.52 161.08 1081.06 126.878C1075.91 121.453 1066.71 121.729 1061.57 126.878C1056.42 132.026 1056.42 140.945 1061.57 146.369Z" fill="#F08100"/>
<path d="M1684.01 746.559C1651.55 712.449 1619.09 678.339 1586.63 644.137C1581.48 638.713 1572.29 638.989 1567.14 644.137C1561.99 649.286 1561.99 658.204 1567.14 663.629C1599.6 697.739 1632.06 731.849 1664.52 766.051C1669.67 771.475 1678.86 771.199 1684.01 766.051C1689.16 760.902 1689.16 751.984 1684.01 746.559Z" fill="#F08100"/>
<path d="M1074.07 766.051C1106.53 731.941 1138.99 697.831 1171.45 663.629C1176.6 658.204 1176.79 649.47 1171.45 644.137C1166.12 638.805 1157.11 638.713 1151.96 644.137C1119.5 678.247 1087.04 712.357 1054.58 746.559C1049.43 751.984 1049.24 760.718 1054.58 766.051C1059.91 771.383 1068.92 771.475 1074.07 766.051Z" fill="#F08100"/>
<path d="M1590.95 452.165C1590.95 325.011 1483.83 222.865 1354.9 230.956C1245.57 237.851 1156.19 326.114 1148.19 435.431C1141.66 524.614 1187.91 603.499 1258.81 644.413C1271.96 651.952 1279.96 666.019 1279.96 681.189V735.71C1279.96 759.246 1299.09 778.37 1322.63 778.37H1415.87C1439.41 778.37 1458.54 759.246 1458.54 735.71V681.189C1458.54 666.111 1466.45 652.044 1479.5 644.596C1546.17 606.349 1591.05 534.543 1591.05 452.257L1590.95 452.165Z" fill="#FBBD53"/>
<path d="M1343.23 491.516C1361.62 485.356 1382.67 482.873 1400.61 491.792C1415.32 499.147 1420.74 511.927 1414.68 527.557C1412.56 532.981 1409.43 538.038 1406.03 542.819C1407.87 540.152 1403.92 545.209 1402.08 547.048C1399.69 549.438 1397.2 551.553 1394.45 553.392C1384.88 560.012 1372.47 565.344 1360.7 564.333C1351.04 563.505 1344.33 556.978 1345.06 546.588C1346.17 532.429 1370.08 532.246 1380.19 533.717C1397.02 536.107 1413.2 547.416 1420.28 563.23C1428.56 581.71 1416.24 599.27 1397.66 603.775C1387.46 606.258 1377.53 603.408 1368.15 609.384C1358.77 615.36 1356.1 625.473 1355.92 636.322C1355.36 665.376 1355.64 694.521 1355.55 723.574C1355.55 741.319 1383.04 741.319 1383.13 723.574C1383.13 706.749 1383.32 689.924 1383.32 673.099C1383.32 663.905 1383.32 654.711 1383.41 645.516C1383.41 642.574 1382.31 636.782 1383.41 634.024C1384.51 631.266 1381.39 632.093 1387.64 632.553C1412.65 634.3 1439.23 616.463 1447.6 593.11C1456.97 566.999 1443 539.785 1422.58 523.327C1403.82 508.249 1379.18 502.457 1355.64 507.238C1332.1 512.019 1315.18 527.557 1317.75 551.921C1319.78 570.861 1331.73 586.491 1350.77 590.628C1386.54 598.443 1424.42 572.975 1438.68 541.164C1449.99 515.696 1445.02 488.666 1421.76 472.3C1397.02 454.923 1363.55 455.659 1335.96 464.853C1319.23 470.461 1326.4 497.124 1343.32 491.424L1343.23 491.516Z" fill="#F08100"/>
<path d="M1419.78 815H1318.72C1301.2 815 1287 829.201 1287 846.719V897.471C1287 914.989 1301.2 929.19 1318.72 929.19H1419.78C1437.31 929.19 1451.51 914.989 1451.51 897.471V846.719C1451.51 829.201 1437.31 815 1419.78 815Z" fill="#B2B2B2"/>
<mask id="mask0_16265_10904" style="mask-type:luminance" maskUnits="userSpaceOnUse" x="1287" y="815" width="165" height="115">
<path d="M1419.78 815H1318.72C1301.2 815 1287 829.201 1287 846.719V897.471C1287 914.989 1301.2 929.19 1318.72 929.19H1419.78C1437.31 929.19 1451.51 914.989 1451.51 897.471V846.719C1451.51 829.201 1437.31 815 1419.78 815Z" fill="white"/>
</mask>
<g mask="url(#mask0_16265_10904)">
<path d="M1262.82 859.5H1480.75C1498.5 859.5 1498.5 831.918 1480.75 831.918H1262.82C1245.07 831.918 1245.07 859.5 1262.82 859.5Z" fill="#878787"/>
<path d="M1262.82 908.873H1480.75C1498.5 908.873 1498.5 881.291 1480.75 881.291H1262.82C1245.07 881.291 1245.07 908.873 1262.82 908.873Z" fill="#878787"/>
</g>
<path d="M1906.36 2160.33L1791.97 2143.78L1855.88 1701.18L1970.27 1717.73C2092.39 1735.38 2177.26 1848.83 2159.61 1971.02C2141.95 2093.12 2028.48 2177.98 1906.36 2160.33Z" fill="#A65225"/>
<path d="M1910.32 2092.29L1802.64 2076.76L1847.14 1768.48L1954.82 1784.02C2039.88 1796.34 2099.01 1875.31 2086.69 1960.45C2074.37 2045.5 1995.38 2104.61 1910.22 2092.29H1910.32Z" fill="#F2936A"/>
<path d="M807.584 1547.45L921.977 1564L858.067 2006.6L743.674 1990.05C621.557 1972.4 536.682 1858.95 554.337 1736.76C571.993 1614.66 685.466 1529.8 807.584 1547.45Z" fill="#A65225"/>
<path d="M803.629 1615.49L911.309 1631.03L866.803 1939.3L759.123 1923.76C674.064 1911.44 614.936 1832.47 627.258 1747.33C639.58 1662.29 718.57 1603.17 803.721 1615.49H803.629Z" fill="#F2936A"/>
<path d="M1749.58 2341.36C1506.54 2304.22 1263.59 2267.07 1020.55 2229.93C996.553 2226.25 974.759 2214.21 958.851 2195.91C810.894 2025.82 587.625 1745.77 420.082 1546.99C381.369 1501.12 312.31 1496.43 267.711 1536.51L77.3629 1707.43C35.9828 1744.57 34.2356 1808.84 73.5927 1848.1C237.182 2011.39 454.565 2253.1 597.924 2386.69C611.534 2399.38 621.465 2415.37 626.615 2433.21C653.926 2527.26 681.236 2621.23 708.639 2715.28C722.984 2764.66 768.502 2798.31 819.906 2797.66C1156.37 2793.16 1492.84 2788.56 1829.3 2784.05C1882.09 2783.32 1927.51 2746.54 1939.19 2695.06C1943.51 2676.12 1947.74 2657.08 1952.07 2638.15C1983.51 2499.22 1890.55 2362.78 1749.67 2341.27L1749.58 2341.36Z" fill="#3C3C3B"/>
<mask id="mask1_16265_10904" style="mask-type:luminance" maskUnits="userSpaceOnUse" x="45" y="1509" width="1914" height="1289">
<path d="M1749.58 2341.36C1506.54 2304.22 1263.59 2267.07 1020.55 2229.93C996.553 2226.25 974.759 2214.21 958.851 2195.91C810.894 2025.82 587.625 1745.77 420.082 1546.99C381.369 1501.12 312.31 1496.43 267.711 1536.51L77.3629 1707.43C35.9828 1744.57 34.2356 1808.84 73.5927 1848.1C237.182 2011.39 454.565 2253.1 597.924 2386.69C611.534 2399.38 621.465 2415.37 626.615 2433.21C653.926 2527.26 681.236 2621.23 708.639 2715.28C722.984 2764.66 768.502 2798.31 819.906 2797.66C1156.37 2793.16 1492.84 2788.56 1829.3 2784.05C1882.09 2783.32 1927.51 2746.54 1939.19 2695.06C1943.51 2676.12 1947.74 2657.08 1952.07 2638.15C1983.51 2499.22 1890.55 2362.78 1749.67 2341.27L1749.58 2341.36Z" fill="white"/>
</mask>
<g mask="url(#mask1_16265_10904)">
<path d="M1626.91 2302.65L996.001 2218.62C1010.62 2293.92 1025.33 2369.22 1039.96 2444.52C1043.82 2464.47 1056.42 2481.66 1074.26 2491.41C1098.81 2504.83 1123.36 2518.26 1148 2531.59C1158.85 2537.56 1158.67 2553.19 1147.64 2558.89L1098.07 2584.27C1094.12 2586.2 1083.54 2592.18 1076.65 2604.96C1071.04 2615.44 1070.76 2625.37 1070.94 2629.87C1081.24 2686.23 1091.54 2742.5 1101.84 2798.86H1426.26C1426.54 2797.76 1451.27 2708.2 1451.27 2708.2C1453.11 2704.44 1458.81 2691.66 1455.04 2675.93C1452.29 2664.53 1446.03 2657.18 1442.91 2653.96L1400.61 2596.86C1393.07 2586.75 1400.24 2572.41 1412.84 2572.32C1436.93 2572.13 1461.02 2571.86 1485.21 2571.67C1499.83 2571.58 1513.07 2562.85 1518.95 2549.42C1555 2467.23 1590.95 2385.03 1627 2302.84L1626.91 2302.65Z" fill="#595958"/>
<path d="M1231.68 2813.11C1195.82 2623.99 1159.96 2434.87 1124.19 2245.84C1249.98 2264.04 1375.78 2282.24 1501.57 2300.45C1427.83 2469.53 1354.08 2638.61 1280.24 2807.78C1264.05 2809.62 1247.87 2811.36 1231.68 2813.2V2813.11Z" fill="#F6F6F6"/>
<path d="M1847.14 2643.94C1810.55 2704.9 1773.95 2765.85 1737.44 2826.81C1728.25 2842.07 1752.15 2855.95 1761.26 2840.69C1797.86 2779.74 1834.45 2718.78 1870.96 2657.82C1880.16 2642.56 1856.25 2628.68 1847.14 2643.94Z" fill="#313130"/>
</g>
<path d="M256.653 1612.37L100.822 1753.84C84.2413 1768.9 82.9911 1794.52 98.0298 1811.08C113.069 1827.64 138.701 1828.86 155.282 1813.81L311.113 1672.34C327.694 1657.28 328.944 1631.66 313.906 1615.1C298.867 1598.54 273.234 1597.32 256.653 1612.37Z" fill="#313130"/>
<path d="M384.485 1197.04L384.025 1513.4L242.965 1513.22L243.425 1196.85C243.425 1159.34 274.046 1128.91 311.472 1129H316.621C354.139 1129 384.577 1159.62 384.485 1197.13V1197.04Z" fill="#CE6726"/>
<path d="M145.768 1716.41C265.494 1765.23 402.232 1707.77 451.061 1587.97C499.89 1468.26 442.417 1331.55 322.691 1282.73C202.964 1233.9 66.2261 1291.37 17.3976 1411.17C-31.431 1530.87 26.0414 1667.59 145.768 1716.41Z" fill="#CE6726"/>
<path d="M350 1204.12L349.763 1386L277 1385.89L277.237 1204.01C277.237 1182.44 293.032 1164.95 312.338 1165H314.994C334.347 1165 350.047 1182.6 350 1204.17V1204.12Z" fill="#F5A56D"/>
<path d="M179.618 1662.64C264.724 1697.34 361.924 1656.49 396.633 1571.34C431.342 1486.25 390.489 1389.07 305.382 1354.36C220.276 1319.66 123.076 1360.51 88.3669 1445.66C53.6576 1530.75 94.5113 1627.93 179.618 1662.64Z" fill="#F5A56D"/>
<mask id="mask2_16265_10904" style="mask-type:luminance" maskUnits="userSpaceOnUse" x="0" y="1265" width="469" height="469">
<path d="M145.768 1716.41C265.494 1765.23 402.232 1707.77 451.061 1587.97C499.89 1468.26 442.417 1331.55 322.691 1282.73C202.964 1233.9 66.2261 1291.37 17.3976 1411.17C-31.431 1530.87 26.0414 1667.59 145.768 1716.41Z" fill="white"/>
</mask>
<g mask="url(#mask2_16265_10904)">
<path d="M38.5 1438.5L231 1266L269.5 1387.5L214.5 1497.5L77 1521.5L38.5 1438.5Z" fill="#CE6726"/>
<path d="M317.5 1438.5L409 1387.5L416 1552H354.5L297.5 1497.5L317.5 1438.5Z" fill="#CE6726"/>
<path d="M12.8918 1455.94C-12.1202 1424.68 -37.0402 1393.51 -62.0522 1362.25V1381.75C5.99512 1327.41 73.9504 1272.98 141.998 1218.64C151.653 1210.92 161.308 1203.2 170.964 1195.47H151.469C165.63 1213.13 179.792 1230.87 193.861 1248.52C207.93 1266.18 225.218 1284.75 236.988 1305.07C283.426 1385.24 233.862 1488.86 143.561 1505.77C93.9968 1515.06 44.2487 1494.37 12.7998 1455.85C1.58124 1442.06 -17.8214 1461.73 -6.69478 1475.34C25.1219 1514.23 74.0424 1536.94 124.434 1535.29C174.826 1533.63 221.631 1508.62 251.425 1468.26C281.219 1427.9 289.771 1376.23 276.805 1329.06C267.793 1296.42 247.563 1271.6 226.965 1245.77C208.298 1222.5 189.723 1199.15 171.056 1175.89C166.09 1169.64 156.803 1171.66 151.561 1175.89C83.5138 1230.23 15.5585 1284.66 -52.4888 1338.99C-62.1441 1346.72 -71.7995 1354.44 -81.4548 1362.16C-87.7078 1367.13 -85.6848 1376.41 -81.4548 1381.65C-56.4429 1412.91 -31.5228 1444.08 -6.51086 1475.34C4.61578 1489.22 24.0184 1469.55 12.9838 1455.85L12.8918 1455.94Z" fill="#9B3E24"/>
<path d="M224.666 1482.05C165.171 1381.01 82.6867 1295.23 -15.6141 1231.42C-30.5109 1221.68 -44.3962 1245.58 -29.4994 1255.23C64.8472 1316.56 143.745 1399.03 200.85 1495.94C209.861 1511.2 233.678 1497.31 224.666 1482.05Z" fill="#9B3E24"/>
<path d="M412.807 1545.68C398.186 1544.02 383.473 1542.37 368.852 1540.8C361.128 1539.98 353.588 1539.52 346.139 1536.94C335.564 1533.36 326.001 1526.09 319.564 1517.08C306.782 1499.06 305.955 1472.58 317.173 1453.55C328.392 1434.52 348.714 1424.87 369.68 1426.98C385.772 1428.54 401.772 1430.57 417.865 1432.41C425.313 1433.23 431.658 1425.51 431.658 1418.61C431.658 1410.43 425.313 1405.65 417.865 1404.82C401.772 1402.98 385.772 1400.96 369.68 1399.4C341.449 1396.64 313.403 1411.53 297.035 1434.06C279.563 1458.15 277.356 1492.44 289.219 1519.29C295.656 1533.72 306.506 1545.95 319.748 1554.59C332.99 1563.24 347.059 1566.27 362.323 1567.74C379.151 1569.3 395.979 1571.51 412.807 1573.35C420.256 1574.18 426.601 1566.45 426.601 1559.56C426.601 1551.38 420.256 1546.6 412.807 1545.77V1545.68Z" fill="#9B3E24"/>
</g>
<mask id="mask3_16265_10904" style="mask-type:alpha" maskUnits="userSpaceOnUse" x="1216" y="1067" width="444" height="256">
<path d="M1659.19 1322.01C1542.77 1307.49 1426.26 1293.05 1309.85 1278.53C1291.09 1257.56 1269.39 1229.52 1249.8 1193.67C1236.19 1168.84 1226.26 1144.75 1218.72 1122.69C1208.69 1092.9 1233.43 1063.11 1264.42 1067.52L1484.93 1099.33C1501.3 1101.72 1514.63 1113.4 1519.23 1129.31C1525.67 1151.56 1535.41 1177.39 1550.68 1204.42C1585.53 1266.11 1631.42 1303.07 1659.09 1321.92L1659.19 1322.01Z" fill="#CE6726"/>
</mask>
<g mask="url(#mask3_16265_10904)">
<path d="M1659.19 1322.01C1542.77 1307.49 1426.26 1293.05 1309.85 1278.53C1291.09 1257.56 1269.39 1229.52 1249.8 1193.67C1236.19 1168.84 1226.26 1144.75 1218.72 1122.69C1208.69 1092.9 1233.43 1063.11 1264.42 1067.52L1484.93 1099.33C1501.3 1101.72 1514.63 1113.4 1519.23 1129.31C1525.67 1151.56 1535.41 1177.39 1550.68 1204.42C1585.53 1266.11 1631.42 1303.07 1659.09 1321.92L1659.19 1322.01Z" fill="#CE6726"/>
<path d="M1299.09 1059.25C1314.35 1144.2 1355.73 1222.72 1416.51 1283.86C1429.02 1296.45 1448.52 1276.96 1436.01 1264.37C1378.35 1206.35 1340.1 1132.52 1325.66 1051.98C1322.54 1034.51 1295.96 1041.96 1299.09 1059.34V1059.25Z" fill="#9B3F25"/>
<path d="M1409.53 1063.2C1424.79 1148.15 1466.17 1226.67 1526.95 1287.81C1539.46 1300.41 1558.95 1280.92 1546.45 1268.32C1488.79 1210.31 1450.54 1136.48 1436.1 1055.94C1432.97 1038.47 1406.4 1045.92 1409.53 1063.29V1063.2Z" fill="#9B3F25"/>
</g>
<path d="M1201.25 2154.16L1452.95 2187.47C1456.86 2187.99 1459.63 2191.6 1459.11 2195.52L1442.66 2319.84C1434 2385.19 1373.93 2431.22 1308.56 2422.57L1279.39 2418.71C1214.03 2410.06 1168 2349.99 1176.65 2284.64L1193.11 2160.32C1193.63 2156.4 1197.24 2153.63 1201.16 2154.15L1201.25 2154.16Z" fill="#A65225"/>
<path d="M1141.2 2218.89L1504.42 2271.39C1716.38 2302.01 1913.08 2155 1943.7 1943.07L1975.24 1724.9C2005.86 1512.97 1858.82 1316.31 1646.86 1285.7L1283.64 1233.2C1071.68 1202.58 874.987 1349.6 844.366 1561.52L812.825 1779.69C782.203 1991.62 929.241 2188.28 1141.2 2218.89Z" fill="#CE6726"/>
<mask id="mask4_16265_10904" style="mask-type:luminance" maskUnits="userSpaceOnUse" x="808" y="1229" width="1172" height="1047">
<path d="M1141.2 2218.89L1504.42 2271.39C1716.38 2302.01 1913.08 2155 1943.7 1943.07L1975.24 1724.9C2005.86 1512.97 1858.82 1316.31 1646.86 1285.7L1283.64 1233.2C1071.68 1202.58 874.987 1349.6 844.366 1561.52L812.825 1779.69C782.203 1991.62 929.241 2188.28 1141.2 2218.89Z" fill="white"/>
</mask>
<g mask="url(#mask4_16265_10904)">
<path d="M1164.65 2074.18L1556.1 2130.72C1702.86 2151.96 1839.05 2050.18 1860.29 1903.35L1898.18 1641.05C1919.42 1494.31 1817.62 1358.15 1670.77 1336.91L1279.32 1280.36C1132.55 1259.13 996.368 1360.9 975.126 1507.73L937.24 1770.04C915.999 1916.78 1017.79 2052.94 1164.65 2074.18Z" fill="#F5A56D"/>
<path d="M1769.72 1879.91C1829.3 1882.21 1888.89 1884.41 1948.57 1886.71C1957.03 1886.99 1965.49 1887.36 1974.04 1887.63C1981.12 1887.91 1987.93 1884.05 1989.03 1876.41C1989.95 1869.98 1984.98 1861.8 1977.81 1861.43C1918.22 1859.13 1858.64 1856.92 1798.96 1854.62C1790.5 1854.35 1782.04 1853.98 1773.49 1853.71C1766.41 1853.43 1759.6 1857.29 1758.5 1864.92C1757.58 1871.36 1762.54 1879.54 1769.72 1879.91Z" fill="#ED6D66"/>
<path d="M1756.29 1953.74C1812.29 1974.33 1868.29 1995.11 1924.2 2015.7C1932.11 2018.65 1940.11 2021.5 1948.02 2024.53C1963.93 2030.41 1974.59 2006.23 1958.59 2000.26C1902.59 1979.66 1846.59 1958.89 1790.68 1938.29C1782.77 1935.35 1774.77 1932.5 1766.87 1929.56C1750.96 1923.67 1740.29 1947.85 1756.29 1953.83V1953.74Z" fill="#ED6D66"/>
<path d="M1716.75 2017.08C1764.29 2053.12 1811.83 2089.07 1859.47 2125.11C1866.18 2130.26 1872.98 2135.32 1879.79 2140.47C1893.3 2150.77 1909.86 2130.08 1896.25 2119.78C1848.61 2083.74 1801.17 2047.79 1753.53 2011.75C1746.82 2006.6 1740.01 2001.55 1733.3 1996.4C1719.78 1986.1 1703.23 2006.79 1716.84 2017.08H1716.75Z" fill="#ED6D66"/>
<path d="M1070.67 1571.91C1073.24 1571.82 1075.91 1571.82 1078.48 1571.72C1084 1571.72 1078.67 1572.09 1076.46 1571.72C1077.75 1571.91 1079.31 1571.72 1080.6 1571.82C1088.05 1572.09 1095.4 1572.64 1102.76 1573.65C1110.85 1574.67 1118.95 1576.14 1126.95 1577.98C1129.34 1578.53 1131.73 1579.17 1134.12 1579.72C1136.97 1580.46 1137.61 1580.73 1134.39 1579.72C1139.54 1581.29 1144.51 1582.94 1149.57 1584.87C1157.84 1587.9 1165.93 1591.49 1173.84 1595.44C1177.43 1597.19 1181.02 1599.12 1184.6 1601.24C1185.34 1601.7 1186.17 1602.16 1186.9 1602.52C1189.02 1603.72 1188.37 1603.44 1185.06 1601.42C1186.35 1601.7 1188.1 1603.35 1189.2 1603.99C1200.05 1610.98 1210.26 1618.8 1219.91 1627.35C1232.88 1638.84 1256.14 1635.99 1266.35 1622.11C1277.39 1607.03 1274.9 1588 1261.11 1575.68C1206.58 1527.41 1134.95 1503.87 1062.58 1506.63C1045.29 1507.27 1031.13 1527.04 1033.98 1543.5C1037.2 1562.35 1052.37 1572.83 1070.85 1572.09V1571.91H1070.67Z" fill="#3C1110"/>
<path d="M1813.03 1614.75C1744.43 1591.67 1669.02 1593.97 1603.09 1624.77C1587.46 1632.04 1577.25 1650.98 1584.89 1667.8C1591.97 1683.34 1611.18 1693.82 1627.92 1686C1639.23 1680.67 1650.91 1676.26 1662.86 1672.67C1664.43 1672.21 1667.28 1670.93 1668.75 1671.02C1666.63 1670.83 1663.78 1672.21 1667.92 1671.29C1672.06 1670.37 1675.83 1669.46 1679.78 1668.81C1688.89 1667.16 1698.17 1665.96 1707.37 1665.23C1712.15 1664.95 1716.93 1664.86 1721.81 1664.67C1727.23 1664.4 1716.93 1664.4 1722.18 1664.67C1724.66 1664.67 1727.05 1664.86 1729.62 1664.95C1737.81 1665.41 1746.08 1666.33 1754.18 1667.52C1761.53 1668.72 1768.89 1670.19 1776.15 1672.03C1777.53 1672.4 1778.82 1672.77 1780.2 1673.04C1784.43 1674.05 1772.66 1670.74 1778.27 1672.49C1781.03 1673.32 1783.79 1674.24 1786.54 1675.16C1802.82 1680.67 1823.33 1675.8 1830.04 1658.15C1836.02 1642.7 1830.5 1620.54 1813.03 1614.66V1614.75Z" fill="#3C1110"/>
<path d="M1343.52 2050.69L1379.31 2056.35C1483.27 2072.61 1581.36 2003.34 1597.97 1901.54L1608.34 1838.47C1612.47 1813.85 1596.78 1790.13 1572.1 1783.93C1523.92 1771.53 1470.79 1760.03 1413.53 1751.04C1354.35 1741.7 1298.65 1735.95 1247.63 1732.8C1222.12 1731.36 1199.82 1748.88 1195.79 1773.68L1185.42 1836.76C1168.81 1938.56 1239.56 2034.61 1343.52 2050.87V2050.69Z" fill="#F6F6F6"/>
<mask id="mask5_16265_10904" style="mask-type:luminance" maskUnits="userSpaceOnUse" x="1183" y="1732" width="426" height="327">
<path d="M1343.52 2050.69L1379.31 2056.35C1483.27 2072.61 1581.36 2003.34 1597.97 1901.54L1608.34 1838.47C1612.47 1813.85 1596.78 1790.13 1572.1 1783.93C1523.92 1771.53 1470.79 1760.03 1413.53 1751.04C1354.35 1741.7 1298.65 1735.95 1247.63 1732.8C1222.12 1731.36 1199.82 1748.88 1195.79 1773.68L1185.42 1836.76C1168.81 1938.56 1239.56 2034.61 1343.52 2050.87V2050.69Z" fill="white"/>
</mask>
<g mask="url(#mask5_16265_10904)">
<path d="M1167.4 1920.09C1199.59 1924.32 1231.87 1928.54 1264.05 1932.87L1252.1 1926.06C1259.64 1936.45 1267.08 1946.84 1274.63 1957.23C1278.95 1963.21 1286.58 1966.33 1293.48 1962.19C1305.52 1954.84 1317.57 1947.48 1329.61 1940.22L1318.95 1941.6C1411.36 1955.39 1503.87 1969.09 1596.29 1982.88C1613.67 1985.46 1621.11 1958.88 1603.64 1956.31C1547.55 1947.94 1491.46 1939.67 1435.46 1931.3C1408.15 1927.26 1380.93 1923.21 1353.62 1919.17C1341.39 1917.33 1325.29 1911.44 1313.89 1917.6C1302.49 1923.76 1290.99 1931.58 1279.59 1938.47L1298.44 1943.44C1291.36 1933.6 1284.37 1923.76 1277.11 1914.02C1269.2 1903.35 1256.51 1904.46 1244.19 1902.89C1218.53 1899.49 1192.97 1896.09 1167.31 1892.78C1159.86 1891.77 1153.61 1899.86 1153.52 1906.57C1153.52 1914.85 1159.96 1919.35 1167.31 1920.36L1167.4 1920.09Z" fill="#DADADA"/>
</g>
<path d="M1570.17 1899.59C1537.71 1878.35 1480.15 1846.44 1401.34 1832.01C1319.41 1817.02 1251.82 1827.78 1213.57 1836.79C1209.98 1834.95 1175.5 1816.19 1172.92 1785.12C1170.07 1751.28 1205.84 1711.66 1260.83 1708.99C1355.27 1726 1449.71 1743.01 1544.15 1759.93C1606.49 1772.62 1637.85 1823 1628.2 1856.1C1618.91 1887.91 1573.02 1898.85 1570.17 1899.49V1899.59Z" fill="#F5A56D"/>
<path d="M1203.91 1744.2C1186.53 1749.26 1168.78 1761.3 1162.72 1779.05C1156.19 1797.9 1161.98 1822.63 1177.34 1835.87C1189.75 1846.53 1207.41 1849.11 1223.22 1849.75C1245.75 1850.76 1268.28 1849.11 1290.81 1848.28C1350.03 1846.17 1407.69 1851.59 1464.33 1869.79C1488.33 1877.52 1511.69 1886.9 1535.5 1895.26C1553.25 1901.51 1571.92 1908.04 1590.95 1907.58C1613.67 1907.12 1631.97 1890.66 1638.68 1869.24C1645.39 1847.82 1634.63 1825.39 1617.9 1810.77C1605.02 1799.46 1588.65 1820.24 1601.44 1831.36C1604.2 1833.75 1603.55 1833.11 1605.76 1835.59C1608.33 1838.53 1610.63 1841.66 1612.29 1845.25C1614.86 1850.76 1615.14 1856.92 1613.76 1860.88C1612.01 1865.75 1609.44 1870.16 1605.94 1874.12C1604.65 1875.49 1603.28 1876.69 1601.8 1877.88C1599.6 1879.63 1602.36 1877.89 1599.78 1879.08C1596.1 1880.64 1590.86 1881.38 1587.28 1881.19C1571.64 1880.18 1556.93 1874.76 1542.31 1869.52C1521.16 1861.89 1500.19 1853.7 1478.77 1846.63C1427.46 1829.71 1375.5 1821.34 1321.52 1821.25C1299.27 1821.25 1277.2 1822.44 1255.04 1823.18C1239.13 1823.73 1222.76 1824.47 1207.04 1821.07C1202.26 1820.05 1197.66 1818.03 1193.89 1815C1192.05 1813.43 1193.43 1814.63 1193.89 1815C1193.34 1814.45 1192.88 1813.8 1192.51 1813.25C1191.68 1811.96 1190.95 1810.86 1190.3 1809.57C1187.73 1804.61 1186.62 1798.72 1186.9 1793.21C1186.99 1791.46 1187.73 1789.62 1187.64 1787.88C1187.64 1787.42 1188.28 1785.58 1187.54 1788.24C1186.62 1791.18 1187.64 1787.88 1188 1787.32C1190.12 1783.19 1192.6 1779.88 1196.37 1777.03C1201.61 1773.07 1207.77 1770.5 1214.12 1768.66C1221.02 1766.73 1223.87 1757.63 1221.38 1751.47C1218.44 1744.3 1211.08 1742.18 1204.19 1744.2H1204H1203.91Z" fill="#3C1110"/>
<path d="M1446.77 1754.13C1439.32 1758.46 1431.87 1762.87 1424.42 1767.19L1421.2 1769.03C1419.73 1770.04 1418.72 1771.33 1417.99 1772.89C1416.88 1774.36 1416.33 1776.02 1416.24 1777.76C1415.78 1780.98 1416.79 1785.03 1418.9 1787.51C1421.02 1789.99 1424.15 1792.29 1427.64 1792.57H1431.14C1433.43 1792.2 1435.46 1791.37 1437.3 1789.99C1444.74 1785.67 1452.19 1781.26 1459.64 1776.94L1462.77 1775.1C1464.24 1774.09 1465.25 1772.8 1465.99 1771.24C1467.09 1769.76 1467.64 1768.11 1467.73 1766.36C1468.19 1763.15 1467.18 1759.1 1465.07 1756.62C1462.95 1754.13 1459.83 1751.84 1456.33 1751.56H1452.84C1450.54 1751.93 1448.51 1752.76 1446.68 1754.13H1446.77Z" fill="#3C1110"/>
<path d="M1351.87 1759.19C1357.94 1765.35 1364.01 1771.42 1370.08 1777.58L1372.65 1780.15C1373.66 1781.62 1374.95 1782.64 1376.51 1783.37C1377.98 1784.47 1379.64 1785.03 1381.39 1785.12C1384.61 1785.58 1388.65 1784.57 1391.13 1782.45C1393.62 1780.34 1395.92 1777.21 1396.19 1773.72C1396.47 1770.5 1395.92 1766.36 1393.53 1763.97C1387.46 1757.81 1381.39 1751.74 1375.32 1745.58L1372.74 1743.01C1371.73 1741.54 1370.44 1740.53 1368.88 1739.79C1367.41 1738.69 1365.75 1738.14 1364.01 1738.04C1360.79 1737.59 1356.74 1738.6 1354.26 1740.71C1351.78 1742.83 1349.48 1745.95 1349.2 1749.45C1348.93 1752.66 1349.48 1756.8 1351.87 1759.19Z" fill="#3C1110"/>
<path d="M1041.06 1893.61C968.781 1920.91 896.504 1948.22 824.226 1975.53C814.019 1979.39 803.812 1983.25 793.697 1987.11C777.237 1993.36 784.409 2020.03 801.053 2013.68C873.331 1986.38 945.608 1959.07 1017.89 1931.76C1028.09 1927.9 1038.3 1924.04 1048.41 1920.18C1064.87 1913.93 1057.7 1887.26 1041.06 1893.61Z" fill="#ED6D66"/>
<path d="M1025.89 1822.54C934.482 1827.59 842.986 1832.65 751.582 1837.71C733.926 1838.72 733.834 1866.3 751.582 1865.29C842.986 1860.23 934.482 1855.18 1025.89 1850.12C1043.54 1849.11 1043.63 1821.53 1025.89 1822.54Z" fill="#ED6D66"/>
<path d="M1041.43 1747.79C954.252 1725.82 867.078 1703.84 779.904 1681.78C762.708 1677.45 755.352 1704.03 772.548 1708.35C859.722 1730.32 946.896 1752.29 1034.07 1774.36C1051.27 1778.68 1058.62 1752.11 1041.43 1747.79Z" fill="#ED6D66"/>
<path d="M2039.39 1322.84L875.199 1161.74L846.417 1369.66L2010.61 1530.76L2039.39 1322.84Z" fill="#FFF8D9"/>
<path d="M1467.83 1345.37C1502.31 1322.01 1508.47 1310.43 1506.35 1304.27C1501.85 1291.58 1459.09 1290.2 1426.17 1306.02C1391.23 1322.66 1360.61 1361.82 1370.54 1382.6C1378.26 1398.78 1408.24 1399.15 1424.24 1399.24C1466.35 1399.79 1511.87 1380.3 1510.68 1365.78C1510.22 1359.89 1501.57 1352.26 1468.1 1345.37H1467.92H1467.83Z" fill="#ED6C9F"/>
<path d="M1093.75 1419.75C1147.27 1413.31 1203.91 1422.96 1247.41 1456.52C1290.9 1490.08 1309.57 1540.65 1307.09 1593.42C1306.26 1611.17 1333.85 1611.17 1334.67 1593.42C1337.43 1533.38 1314.17 1474.54 1266.63 1436.85C1219.09 1399.15 1154.44 1384.9 1093.75 1392.26C1076.37 1394.37 1076.09 1421.95 1093.75 1419.84V1419.75Z" fill="#3A1212"/>
<path d="M1838.96 1462.68C1795.74 1433.72 1742.04 1418.09 1689.99 1420.67C1628.93 1423.7 1571 1450.91 1528.61 1494.68C1516.29 1507.46 1535.69 1526.95 1548.1 1514.17C1586.36 1474.73 1638.59 1449.9 1693.85 1448.06C1740.2 1446.59 1786.64 1460.66 1825.07 1486.4C1839.88 1496.33 1853.67 1472.43 1838.96 1462.59V1462.68Z" fill="#3A1212"/>
</g>
<path d="M615.933 2353.11C524.989 2170.33 434.136 1987.55 343.192 1804.68C339.146 1796.59 340.801 1786.84 347.33 1780.5C372.894 1755.68 398.365 1730.76 423.929 1705.94C435.056 1695.09 453.631 1699.78 458.321 1714.58C523.701 1922.27 589.082 2129.87 654.462 2337.57C662.187 2362.02 627.427 2376.09 616.025 2353.11H615.933Z" fill="#313130"/>
</g>
<defs>
<clipPath id="clip0_16265_10904">
<rect width="2162" height="2798" fill="white"/>
</clipPath>
</defs>
</svg>
