<svg width="120" height="120" viewBox="0 0 120 120" fill="none" xmlns="http://www.w3.org/2000/svg">
<g clip-path="url(#clip0_14_1187)">
<path d="M42.6562 120.938C53.8125 120.938 62.8125 111.938 62.8125 100.781V80.625H42.6562C31.5 80.625 22.5 89.625 22.5 100.781C22.5 111.938 31.5 120.938 42.6562 120.938Z" fill="#0ACF83"/>
<path d="M22.5 60.4688C22.5 49.3125 31.5 40.3125 42.6562 40.3125H62.8125V80.625H42.6562C31.5 80.625 22.5 71.625 22.5 60.4688Z" fill="#A259FF"/>
<path d="M22.5 20.1562C22.5 9 31.5 0 42.6562 0H62.8125V40.3125H42.6562C31.5 40.3125 22.5 31.3125 22.5 20.1562Z" fill="#F24E1E"/>
<path d="M62.8125 0H82.9688C94.125 0 103.125 9 103.125 20.1562C103.125 31.3125 94.125 40.3125 82.9688 40.3125H62.8125V0Z" fill="#FF7262"/>
<path d="M103.125 60.4688C103.125 71.625 94.125 80.625 82.9688 80.625C71.8125 80.625 62.8125 71.625 62.8125 60.4688C62.8125 49.3125 71.8125 40.3125 82.9688 40.3125C94.125 40.3125 103.125 49.3125 103.125 60.4688Z" fill="#1ABCFE"/>
</g>
<defs>
<clipPath id="clip0_14_1187">
<rect width="120" height="120" fill="white"/>
</clipPath>
</defs>
</svg>
